<svg width="229" height="44" viewBox="0 0 229 44" fill="none" xmlns="http://www.w3.org/2000/svg">
<g filter="url(#filter0_d_2_438)">
<path d="M12.5505 29.1743C10.9113 29.1743 9.30887 28.9786 7.74312 28.5872C6.17737 28.1713 4.92966 27.6575 4 27.0459L5.90826 22.9358C6.78899 23.4985 7.85321 23.9633 9.10092 24.3303C10.3486 24.6728 11.5719 24.844 12.7706 24.844C15.1927 24.844 16.4037 24.2446 16.4037 23.0459C16.4037 22.4832 16.0734 22.0795 15.4128 21.8349C14.7523 21.5902 13.737 21.3823 12.367 21.211C10.7523 20.9664 9.41896 20.685 8.36697 20.367C7.31499 20.0489 6.39755 19.4862 5.61468 18.6789C4.85627 17.8716 4.47706 16.7217 4.47706 15.2294C4.47706 13.9817 4.8318 12.8807 5.54128 11.9266C6.27523 10.948 7.32722 10.1896 8.69725 9.65138C10.0917 9.11315 11.7309 8.84404 13.6147 8.84404C15.0092 8.84404 16.3914 9.00306 17.7615 9.3211C19.156 9.61468 20.3058 10.0306 21.211 10.5688L19.3028 14.6422C17.5658 13.6636 15.6697 13.1743 13.6147 13.1743C12.3914 13.1743 11.474 13.3456 10.8624 13.6881C10.2508 14.0306 9.94495 14.4709 9.94495 15.0092C9.94495 15.6208 10.2752 16.0489 10.9358 16.2936C11.5963 16.5382 12.6483 16.7706 14.0917 16.9908C15.7064 17.2599 17.0275 17.5535 18.055 17.8716C19.0826 18.1651 19.9755 18.7156 20.7339 19.5229C21.4924 20.3303 21.8716 21.4557 21.8716 22.8991C21.8716 24.1223 21.5046 25.211 20.7706 26.1651C20.0367 27.1193 18.9602 27.8654 17.5413 28.4037C16.1468 28.9174 14.4832 29.1743 12.5505 29.1743Z" fill="#424242"/>
<path d="M29.5138 8.84404C32.5719 8.84404 34.9205 9.57798 36.5596 11.0459C38.1988 12.4893 39.0183 14.6789 39.0183 17.6147V28.8807H33.6606V26.422C32.5841 28.2569 30.578 29.1743 27.6422 29.1743C26.1254 29.1743 24.8043 28.9174 23.6789 28.4037C22.578 27.8899 21.7339 27.1804 21.1468 26.2752C20.5596 25.37 20.2661 24.3425 20.2661 23.1927C20.2661 21.3578 20.9511 19.9144 22.3211 18.8624C23.7156 17.8104 25.8563 17.2844 28.7431 17.2844H33.2936C33.2936 16.0367 32.9144 15.0826 32.156 14.422C31.3976 13.737 30.2599 13.3945 28.7431 13.3945C27.6911 13.3945 26.6514 13.5658 25.6239 13.9083C24.6208 14.2263 23.7645 14.6667 23.055 15.2294L21 11.2294C22.0765 10.4709 23.3609 9.88379 24.8532 9.46789C26.37 9.05199 27.9235 8.84404 29.5138 8.84404ZM29.0734 25.3211C30.052 25.3211 30.9205 25.1009 31.6789 24.6605C32.4373 24.1957 32.9755 23.5229 33.2936 22.6422V20.6239H29.367C27.0183 20.6239 25.844 21.3945 25.844 22.9358C25.844 23.6697 26.1254 24.2569 26.6881 24.6972C27.2752 25.1131 28.0703 25.3211 29.0734 25.3211Z" fill="#424242"/>
<path d="M60.6714 1.65138V28.8807H55.2036V26.6055C53.7846 28.318 51.7295 29.1743 49.0384 29.1743C47.1791 29.1743 45.491 28.7584 43.9742 27.9266C42.4818 27.0948 41.3075 25.9083 40.4513 24.367C39.595 22.8257 39.1669 21.0398 39.1669 19.0092C39.1669 16.9786 39.595 15.1927 40.4513 13.6514C41.3075 12.1101 42.4818 10.9235 43.9742 10.0917C45.491 9.25994 47.1791 8.84404 49.0384 8.84404C51.5583 8.84404 53.5277 9.63914 54.9467 11.2294V1.65138H60.6714ZM50.0292 24.4771C51.4727 24.4771 52.6714 23.9878 53.6256 23.0092C54.5797 22.0061 55.0568 20.6728 55.0568 19.0092C55.0568 17.3456 54.5797 16.0245 53.6256 15.0459C52.6714 14.0428 51.4727 13.5413 50.0292 13.5413C48.5614 13.5413 47.3503 14.0428 46.3962 15.0459C45.4421 16.0245 44.965 17.3456 44.965 19.0092C44.965 20.6728 45.4421 22.0061 46.3962 23.0092C47.3503 23.9878 48.5614 24.4771 50.0292 24.4771Z" fill="#424242"/>
<path d="M91.4527 24.4771V28.8807H73.838V25.4312L83.8931 13.5413H74.0949V9.13761H91.1224V12.5872L81.0674 24.4771H91.4527Z" fill="#424242"/>
<path d="M110.357 19.0826C110.357 19.156 110.32 19.6697 110.247 20.6239H95.3108C95.5799 21.8471 96.216 22.8135 97.219 23.5229C98.2221 24.2324 99.4698 24.5872 100.962 24.5872C101.99 24.5872 102.895 24.4404 103.678 24.1468C104.485 23.8287 105.231 23.3394 105.916 22.6789L108.962 25.9816C107.103 28.1101 104.387 29.1743 100.815 29.1743C98.5891 29.1743 96.6197 28.7462 94.9071 27.8899C93.1946 27.0092 91.8735 25.7982 90.9438 24.2569C90.0141 22.7156 89.5493 20.9664 89.5493 19.0092C89.5493 17.0765 90.0019 15.3395 90.9071 13.7982C91.8368 12.2324 93.0967 11.0214 94.6869 10.1651C96.3016 9.2844 98.0998 8.84404 100.081 8.84404C102.014 8.84404 103.763 9.25994 105.329 10.0917C106.895 10.9235 108.118 12.1223 108.999 13.6881C109.904 15.2294 110.357 17.0275 110.357 19.0826ZM100.118 13.1743C98.8215 13.1743 97.7328 13.5413 96.8521 14.2752C95.9713 15.0092 95.4331 16.0122 95.2374 17.2844H104.962C104.766 16.0367 104.228 15.0459 103.347 14.3119C102.467 13.5535 101.39 13.1743 100.118 13.1743Z" fill="#424242"/>
<path d="M121.985 8.84404C123.819 8.84404 125.483 9.27217 126.975 10.1284C128.492 10.9602 129.679 12.1468 130.535 13.6881C131.391 15.2049 131.819 16.9786 131.819 19.0092C131.819 21.0398 131.391 22.8257 130.535 24.367C129.679 25.8838 128.492 27.0703 126.975 27.9266C125.483 28.7584 123.819 29.1743 121.985 29.1743C119.465 29.1743 117.483 28.3792 116.04 26.789V36H110.315V9.13761H115.783V11.4128C117.202 9.70031 119.269 8.84404 121.985 8.84404ZM120.994 24.4771C122.462 24.4771 123.66 23.9878 124.59 23.0092C125.544 22.0061 126.021 20.6728 126.021 19.0092C126.021 17.3456 125.544 16.0245 124.59 15.0459C123.66 14.0428 122.462 13.5413 120.994 13.5413C119.526 13.5413 118.315 14.0428 117.361 15.0459C116.431 16.0245 115.966 17.3456 115.966 19.0092C115.966 20.6728 116.431 22.0061 117.361 23.0092C118.315 23.9878 119.526 24.4771 120.994 24.4771Z" fill="#424242"/>
<path d="M143.468 8.84404C145.303 8.84404 146.967 9.27217 148.459 10.1284C149.976 10.9602 151.162 12.1468 152.019 13.6881C152.875 15.2049 153.303 16.9786 153.303 19.0092C153.303 21.0398 152.875 22.8257 152.019 24.367C151.162 25.8838 149.976 27.0703 148.459 27.9266C146.967 28.7584 145.303 29.1743 143.468 29.1743C140.948 29.1743 138.967 28.3792 137.523 26.789V36H131.798V9.13761H137.266V11.4128C138.685 9.70031 140.753 8.84404 143.468 8.84404ZM142.477 24.4771C143.945 24.4771 145.144 23.9878 146.074 23.0092C147.028 22.0061 147.505 20.6728 147.505 19.0092C147.505 17.3456 147.028 16.0245 146.074 15.0459C145.144 14.0428 143.945 13.5413 142.477 13.5413C141.009 13.5413 139.798 14.0428 138.844 15.0459C137.915 16.0245 137.45 17.3456 137.45 19.0092C137.45 20.6728 137.915 22.0061 138.844 23.0092C139.798 23.9878 141.009 24.4771 142.477 24.4771Z" fill="#424242"/>
<path d="M172.622 19.0826C172.622 19.156 172.585 19.6697 172.511 20.6239H157.576C157.845 21.8471 158.481 22.8135 159.484 23.5229C160.487 24.2324 161.735 24.5872 163.227 24.5872C164.255 24.5872 165.16 24.4404 165.943 24.1468C166.75 23.8287 167.496 23.3394 168.181 22.6789L171.227 25.9816C169.368 28.1101 166.652 29.1743 163.08 29.1743C160.854 29.1743 158.885 28.7462 157.172 27.8899C155.459 27.0092 154.138 25.7982 153.209 24.2569C152.279 22.7156 151.814 20.9664 151.814 19.0092C151.814 17.0765 152.267 15.3395 153.172 13.7982C154.102 12.2324 155.362 11.0214 156.952 10.1651C158.567 9.2844 160.365 8.84404 162.346 8.84404C164.279 8.84404 166.028 9.25994 167.594 10.0917C169.16 10.9235 170.383 12.1223 171.264 13.6881C172.169 15.2294 172.622 17.0275 172.622 19.0826ZM162.383 13.1743C161.086 13.1743 159.998 13.5413 159.117 14.2752C158.236 15.0092 157.698 16.0122 157.502 17.2844H167.227C167.031 16.0367 166.493 15.0459 165.612 14.3119C164.732 13.5535 163.655 13.1743 162.383 13.1743Z" fill="#424242"/>
<path d="M172.58 1.65138H178.304V28.8807H172.58V1.65138Z" fill="#424242"/>
<path d="M179.764 9.13761H185.489V28.8807H179.764V9.13761ZM182.627 6.38532C181.575 6.38532 180.718 6.07951 180.058 5.46789C179.397 4.85627 179.067 4.09786 179.067 3.19266C179.067 2.28746 179.397 1.52905 180.058 0.917432C180.718 0.305811 181.575 0 182.627 0C183.679 0 184.535 0.293579 185.196 0.880736C185.856 1.46789 186.186 2.20184 186.186 3.08257C186.186 4.0367 185.856 4.83181 185.196 5.46789C184.535 6.07951 183.679 6.38532 182.627 6.38532Z" fill="#424242"/>
<path d="M198.949 8.84404C201.395 8.84404 203.365 9.57798 204.857 11.0459C206.374 12.5138 207.132 14.6911 207.132 17.578V28.8807H201.408V18.4587C201.408 16.893 201.065 15.7309 200.38 14.9725C199.695 14.1896 198.704 13.7982 197.408 13.7982C195.964 13.7982 194.814 14.2508 193.958 15.156C193.102 16.0367 192.674 17.3578 192.674 19.1193V28.8807H186.949V9.13761H192.417V11.4495C193.175 10.6177 194.117 9.98165 195.243 9.54129C196.368 9.07645 197.603 8.84404 198.949 8.84404Z" fill="#424242"/>
<path d="M215.111 29.1743C213.472 29.1743 211.869 28.9786 210.303 28.5872C208.738 28.1713 207.49 27.6575 206.56 27.0459L208.468 22.9358C209.349 23.4985 210.413 23.9633 211.661 24.3303C212.909 24.6728 214.132 24.844 215.331 24.844C217.753 24.844 218.964 24.2446 218.964 23.0459C218.964 22.4832 218.634 22.0795 217.973 21.8349C217.312 21.5902 216.297 21.3823 214.927 21.211C213.312 20.9664 211.979 20.685 210.927 20.367C209.875 20.0489 208.958 19.4862 208.175 18.6789C207.416 17.8716 207.037 16.7217 207.037 15.2294C207.037 13.9817 207.392 12.8807 208.102 11.9266C208.835 10.948 209.887 10.1896 211.257 9.65138C212.652 9.11315 214.291 8.84404 216.175 8.84404C217.569 8.84404 218.952 9.00306 220.322 9.3211C221.716 9.61468 222.866 10.0306 223.771 10.5688L221.863 14.6422C220.126 13.6636 218.23 13.1743 216.175 13.1743C214.952 13.1743 214.034 13.3456 213.423 13.6881C212.811 14.0306 212.505 14.4709 212.505 15.0092C212.505 15.6208 212.835 16.0489 213.496 16.2936C214.157 16.5382 215.209 16.7706 216.652 16.9908C218.267 17.2599 219.588 17.5535 220.615 17.8716C221.643 18.1651 222.536 18.7156 223.294 19.5229C224.053 20.3303 224.432 21.4557 224.432 22.8991C224.432 24.1223 224.065 25.211 223.331 26.1651C222.597 27.1193 221.52 27.8654 220.102 28.4037C218.707 28.9174 217.043 29.1743 215.111 29.1743Z" fill="#424242"/>
</g>
<defs>
<filter id="filter0_d_2_438" x="0" y="0" width="228.432" height="44" filterUnits="userSpaceOnUse" color-interpolation-filters="sRGB">
<feFlood flood-opacity="0" result="BackgroundImageFix"/>
<feColorMatrix in="SourceAlpha" type="matrix" values="0 0 0 0 0 0 0 0 0 0 0 0 0 0 0 0 0 0 127 0" result="hardAlpha"/>
<feOffset dy="4"/>
<feGaussianBlur stdDeviation="2"/>
<feComposite in2="hardAlpha" operator="out"/>
<feColorMatrix type="matrix" values="0 0 0 0 0 0 0 0 0 0 0 0 0 0 0 0 0 0 0.25 0"/>
<feBlend mode="normal" in2="BackgroundImageFix" result="effect1_dropShadow_2_438"/>
<feBlend mode="normal" in="SourceGraphic" in2="effect1_dropShadow_2_438" result="shape"/>
</filter>
</defs>
</svg>
