<svg width="90" height="25" viewBox="0 0 90 25" fill="none" xmlns="http://www.w3.org/2000/svg">
<path d="M9.04237 0.75061C9.42191 0.27618 9.99654 0 10.6041 0H88C89.1046 0 90 0.895431 90 2V22.1071C90 23.2117 89.1046 24.1071 88 24.1071H10.6041C9.99654 24.1071 9.42191 23.831 9.04237 23.3565L0.999513 13.303C0.415163 12.5725 0.415162 11.5346 0.999512 10.8042L9.04237 0.75061Z" fill="#5A47AB"/>
<path d="M25.9408 6.16659H16.0592C15.9481 6.16504 15.8378 6.1854 15.7346 6.22648C15.6314 6.26757 15.5373 6.32859 15.4576 6.40605C15.378 6.48351 15.3144 6.5759 15.2705 6.67794C15.2266 6.77998 15.2032 6.88967 15.2017 7.00075V16.9991C15.2032 17.1102 15.2266 17.2199 15.2705 17.3219C15.3144 17.4239 15.378 17.5163 15.4576 17.5938C15.5373 17.6712 15.6314 17.7323 15.7346 17.7734C15.8378 17.8144 15.9481 17.8348 16.0592 17.8333H25.9408C26.0519 17.8348 26.1622 17.8144 26.2654 17.7734C26.3686 17.7323 26.4627 17.6712 26.5424 17.5938C26.622 17.5163 26.6856 17.4239 26.7295 17.3219C26.7734 17.2199 26.7968 17.1102 26.7983 16.9991V7.00075C26.7968 6.88967 26.7734 6.77998 26.7295 6.67794C26.6856 6.5759 26.622 6.48351 26.5424 6.40605C26.4627 6.32859 26.3686 6.26757 26.2654 6.22648C26.1622 6.1854 26.0519 6.16504 25.9408 6.16659ZM18.7192 15.9316H16.9692V10.6816H18.7192V15.9316ZM17.8442 9.94658C17.6028 9.94658 17.3714 9.85071 17.2007 9.68005C17.03 9.50939 16.9342 9.27793 16.9342 9.03659C16.9342 8.79524 17.03 8.56378 17.2007 8.39312C17.3714 8.22246 17.6028 8.12659 17.8442 8.12659C17.9723 8.11205 18.1021 8.12475 18.225 8.16385C18.3479 8.20295 18.4612 8.26757 18.5574 8.35348C18.6536 8.43939 18.7306 8.54465 18.7833 8.66237C18.836 8.78009 18.8632 8.90761 18.8632 9.03659C18.8632 9.16556 18.836 9.29309 18.7833 9.4108C18.7306 9.52852 18.6536 9.63378 18.5574 9.71969C18.4612 9.8056 18.3479 9.87022 18.225 9.90932C18.1021 9.94842 17.9723 9.96112 17.8442 9.94658ZM25.0308 15.9316H23.2808V13.1141C23.2808 12.4083 23.03 11.9474 22.3942 11.9474C22.1974 11.9489 22.0058 12.0106 21.8451 12.1243C21.6845 12.238 21.5626 12.3981 21.4958 12.5833C21.4502 12.7204 21.4304 12.8648 21.4375 13.0091V15.9258H19.6875C19.6875 15.9258 19.6875 11.1541 19.6875 10.6758H21.4375V11.4166C21.5965 11.1407 21.8277 10.9135 22.1063 10.7593C22.3848 10.6051 22.7002 10.5298 23.0183 10.5416C24.185 10.5416 25.0308 11.2941 25.0308 12.9099V15.9316Z" fill="white"/>
<path d="M43.26 9H43.99V16H43.26V9ZM38.88 16H38.14V9H38.88V16ZM43.33 12.77H38.8V12.12H43.33V12.77ZM46.1248 16V10.75H46.8348V16H46.1248ZM46.4848 9.59C46.3381 9.59 46.2148 9.54 46.1148 9.44C46.0148 9.34 45.9648 9.22 45.9648 9.08C45.9648 8.94 46.0148 8.82333 46.1148 8.73C46.2148 8.63 46.3381 8.58 46.4848 8.58C46.6314 8.58 46.7548 8.62667 46.8548 8.72C46.9548 8.81333 47.0048 8.93 47.0048 9.07C47.0048 9.21667 46.9548 9.34 46.8548 9.44C46.7614 9.54 46.6381 9.59 46.4848 9.59ZM48.8103 16V10.75H49.4903V12.18L49.4203 11.93C49.567 11.53 49.8136 11.2267 50.1603 11.02C50.507 10.8067 50.937 10.7 51.4503 10.7V11.39C51.4236 11.39 51.397 11.39 51.3703 11.39C51.3436 11.3833 51.317 11.38 51.2903 11.38C50.737 11.38 50.3036 11.55 49.9903 11.89C49.677 12.2233 49.5203 12.7 49.5203 13.32V16H48.8103ZM54.927 16.05C54.3804 16.05 53.9004 15.9367 53.487 15.71C53.0737 15.4767 52.7504 15.16 52.517 14.76C52.2837 14.3533 52.167 13.89 52.167 13.37C52.167 12.85 52.277 12.39 52.497 11.99C52.7237 11.59 53.0304 11.2767 53.417 11.05C53.8104 10.8167 54.2504 10.7 54.737 10.7C55.2304 10.7 55.667 10.8133 56.047 11.04C56.4337 11.26 56.737 11.5733 56.957 11.98C57.177 12.38 57.287 12.8433 57.287 13.37C57.287 13.4033 57.2837 13.44 57.277 13.48C57.277 13.5133 57.277 13.55 57.277 13.59H52.707V13.06H56.897L56.617 13.27C56.617 12.89 56.5337 12.5533 56.367 12.26C56.207 11.96 55.987 11.7267 55.707 11.56C55.427 11.3933 55.1037 11.31 54.737 11.31C54.377 11.31 54.0537 11.3933 53.767 11.56C53.4804 11.7267 53.257 11.96 53.097 12.26C52.937 12.56 52.857 12.9033 52.857 13.29V13.4C52.857 13.8 52.9437 14.1533 53.117 14.46C53.297 14.76 53.5437 14.9967 53.857 15.17C54.177 15.3367 54.5404 15.42 54.947 15.42C55.267 15.42 55.5637 15.3633 55.837 15.25C56.117 15.1367 56.357 14.9633 56.557 14.73L56.957 15.19C56.7237 15.47 56.4304 15.6833 56.077 15.83C55.7304 15.9767 55.347 16.05 54.927 16.05ZM61.4994 16V9H62.1094L65.3094 14.46H64.9894L68.1594 9H68.7694V16H68.0594V10.11H68.2294L65.3094 15.11H64.9594L62.0194 10.11H62.2094V16H61.4994ZM73.1302 16.05C72.5835 16.05 72.1035 15.9367 71.6902 15.71C71.2768 15.4767 70.9535 15.16 70.7202 14.76C70.4868 14.3533 70.3702 13.89 70.3702 13.37C70.3702 12.85 70.4802 12.39 70.7002 11.99C70.9268 11.59 71.2335 11.2767 71.6202 11.05C72.0135 10.8167 72.4535 10.7 72.9402 10.7C73.4335 10.7 73.8702 10.8133 74.2502 11.04C74.6368 11.26 74.9402 11.5733 75.1602 11.98C75.3802 12.38 75.4902 12.8433 75.4902 13.37C75.4902 13.4033 75.4868 13.44 75.4802 13.48C75.4802 13.5133 75.4802 13.55 75.4802 13.59H70.9102V13.06H75.1002L74.8202 13.27C74.8202 12.89 74.7368 12.5533 74.5702 12.26C74.4102 11.96 74.1902 11.7267 73.9102 11.56C73.6302 11.3933 73.3068 11.31 72.9402 11.31C72.5802 11.31 72.2568 11.3933 71.9702 11.56C71.6835 11.7267 71.4602 11.96 71.3002 12.26C71.1402 12.56 71.0602 12.9033 71.0602 13.29V13.4C71.0602 13.8 71.1468 14.1533 71.3202 14.46C71.5002 14.76 71.7468 14.9967 72.0602 15.17C72.3802 15.3367 72.7435 15.42 73.1502 15.42C73.4702 15.42 73.7668 15.3633 74.0402 15.25C74.3202 15.1367 74.5602 14.9633 74.7602 14.73L75.1602 15.19C74.9268 15.47 74.6335 15.6833 74.2802 15.83C73.9335 15.9767 73.5502 16.05 73.1302 16.05Z" fill="white"/>
</svg>